{"title":"Drake - Worst Behavior [Music Video] 720p [Sbyky]","uid":9423123,"size":52932993,"categoryP":"video","categoryS":"music_videos","magnet":"?xt=urn:btih:94b256519d3ffe24d204b99cd6dcd618a7d332d7&amp;dn=Drake+-+Worst+Behavior+%5BMusic+Video%5D+720p+%5BSbyky%5D&amp;tr=udp%3A%2F%2Ftracker.openbittorrent.com%3A80&amp;tr=udp%3A%2F%2Fopen.demonii.com%3A1337&amp;tr=udp%3A%2F%2Ftracker.coppersurfer.tk%3A6969&amp;tr=udp%3A%2F%2Fexodus.desync.com%3A6969","seeders":4,"leechers":4,"uploader":"Sbyky","files":1,"time":1388626950,"description":"\n\nGeneral\nComplete name                            : Drake - Worst Behavior [Music Video] 720p [Sbyky].mp4\nFormat                                   : MPEG-4\nFormat profile                           : Base Media\nCodec ID                                 : isom\nFile size                                : 50.5 MiB\nDuration                                 : 4mn 37s\nOverall bit rate mode                    : Variable\nOverall bit rate                         : 1 523 Kbps\nEncoded date                             : UTC 2013-12-13 15:00:20\nTagged date                              : UTC 2013-12-13 15:00:20\n\nVideo\nID                                       : 1\nFormat                                   : AVC\nFormat/Info                              : Advanced Video Codec\nFormat profile                           : &lt;a class=&quot;__cf_email__&quot; href=&quot;/cdn-cgi/l/email-protection&quot; data-cfemail=&quot;82cfe3ebecc2ceb1acb3&quot;&gt;[email&amp;#160;protected]&lt;/a&gt;&lt;script cf-hash='f9e31' type=&quot;text/javascript&quot;&gt;\n/* &lt;![CDATA[ */!function(){try{var t=&quot;currentScript&quot;in document?document.currentScript:function(){for(var t=document.getElementsByTagName(&quot;script&quot;),e=t.length;e--;)if(t[e].getAttribute(&quot;cf-hash&quot;))return t[e]}();if(t&amp;&amp;t.previousSibling){var e,r,n,i,c=t.previousSibling,a=c.getAttribute(&quot;data-cfemail&quot;);if(a){for(e=&quot;&quot;,r=parseInt(a.substr(0,2),16),n=2;a.length-n;n+=2)i=parseInt(a.substr(n,2),16)^r,e+=String.fromCharCode(i);e=document.createTextNode(e),c.parentNode.replaceChild(e,c)}}}catch(u){}}();/* ]]&gt; */&lt;/script&gt;\nFormat settings, CABAC                   : Yes\nFormat settings, ReFrames                : 3 frames\nCodec ID                                 : avc1\nCodec ID/Info                            : Advanced Video Coding\nDuration                                 : 4mn 37s\nDuration_LastFrame                       : -42ms\nBit rate                                 : 1 395 Kbps\nWidth                                    : 1 280 pixels\nHeight                                   : 720 pixels\nDisplay aspect ratio                     : 16:9\nFrame rate mode                          : Constant\nFrame rate                               : 23.976 fps\nColor space                              : YUV\nChroma subsampling                       : 4:2:0\nBit depth                                : 8 bits\nScan type                                : Progressive\nBits/(Pixel*Frame)                       : 0.063\nStream size                              : 46.2 MiB (92%)\nEncoded date                             : UTC 2013-12-13 15:00:20\nTagged date                              : UTC 2013-12-13 15:00:20\n\nAudio\nID                                       : 2\nFormat                                   : AAC\nFormat/Info                              : Advanced Audio Codec\nFormat profile                           : LC\nCodec ID                                 : 40\nDuration                                 : 4mn 37s\nBit rate mode                            : Variable\nBit rate                                 : 126 Kbps\nChannel(s)                               : 2 channels\nChannel positions                        : Front: L R\nSampling rate                            : 44.1 KHz\nCompression mode                         : Lossy\nDelay relative to video                  : 42ms\nStream size                              : 4.16 MiB (8%)\nEncoded date                             : UTC 2013-12-13 14:59:47\nTagged date                              : UTC 2013-12-13 14:59:47\n\nShared By Sbyky\n","torrent":{"xt":"urn:btih:94b256519d3ffe24d204b99cd6dcd618a7d332d7","amp;dn":"Drake+-+Worst+Behavior+%5BMusic+Video%5D+720p+%5BSbyky%5D","amp;tr":["udp%3A%2F%2Ftracker.openbittorrent.com%3A80","udp%3A%2F%2Fopen.demonii.com%3A1337","udp%3A%2F%2Ftracker.coppersurfer.tk%3A6969","udp%3A%2F%2Fexodus.desync.com%3A6969"],"infoHash":"94b256519d3ffe24d204b99cd6dcd618a7d332d7","infoHashBuffer":{"type":"Buffer","data":[148,178,86,81,157,63,254,36,210,4,185,156,214,220,214,24,167,211,50,215]},"announce":[],"urlList":[]}}